<svg width="55" height="56" viewBox="0 0 55 56" fill="none" xmlns="http://www.w3.org/2000/svg">
<path d="M27.5 1.12012C12.9195 1.12012 1.10001 13.1545 1.10001 28.0001C1.10001 42.8457 12.9195 54.8801 27.5 54.8801C42.0805 54.8801 53.9 42.8457 53.9 28.0001C53.9 13.1545 42.0805 1.12012 27.5 1.12012ZM37.653 31.4469C37.653 31.4469 39.9878 33.7933 40.5625 34.8825C40.579 34.9049 40.5873 34.9273 40.5928 34.9385C40.8265 35.3389 40.8815 35.6497 40.766 35.8821C40.5735 36.2685 39.9135 36.4589 39.688 36.4757H35.563C35.277 36.4757 34.6775 36.4001 33.9515 35.8905C33.3933 35.4929 32.8433 34.8405 32.307 34.2049C31.5068 33.2585 30.8138 32.4409 30.1153 32.4409C30.0265 32.4408 29.9384 32.4549 29.854 32.4829C29.326 32.6565 28.6495 33.4237 28.6495 35.4677C28.6495 36.1061 28.1545 36.4729 27.8053 36.4729H25.916C25.2725 36.4729 21.9203 36.2433 18.9503 33.0541C15.3148 29.1481 12.0423 21.3137 12.0148 21.2409C11.8085 20.7341 12.2348 20.4625 12.6995 20.4625H16.8658C17.4213 20.4625 17.6028 20.8069 17.7293 21.1121C17.8778 21.4677 18.4223 22.8817 19.316 24.4721C20.7653 27.0649 21.6535 28.1177 22.3658 28.1177C22.4993 28.1161 22.6305 28.0815 22.748 28.0169C23.6775 27.4905 23.5043 24.1165 23.463 23.4165C23.463 23.2849 23.4603 21.9073 22.9845 21.2465C22.6435 20.7677 22.0633 20.5857 21.7113 20.5185C21.8537 20.3183 22.0414 20.156 22.2585 20.0453C22.8965 19.7205 24.046 19.6729 25.1873 19.6729H25.8225C27.06 19.6897 27.379 19.7709 27.8273 19.8857C28.7348 20.1069 28.754 20.7033 28.6743 22.7445C28.6495 23.3241 28.6248 23.9793 28.6248 24.7521C28.6248 24.9201 28.6165 25.0993 28.6165 25.2897C28.589 26.3285 28.556 27.5073 29.2765 27.9917C29.3705 28.0517 29.4791 28.0837 29.59 28.0841C29.8403 28.0841 30.5938 28.0841 32.6343 24.5197C33.2636 23.3724 33.8104 22.1803 34.2705 20.9525C34.3118 20.8797 34.4328 20.6557 34.5758 20.5689C34.6813 20.5141 34.7983 20.4863 34.9168 20.4877H39.8145C40.348 20.4877 40.7138 20.5689 40.7825 20.7789C40.9035 21.1121 40.7605 22.1285 38.5248 25.2113L37.5265 26.5525C35.4998 29.2573 35.4998 29.3945 37.653 31.4469V31.4469Z" fill="white"/>
</svg>
