<svg width="67" height="67" viewBox="0 0 67 67" fill="none" xmlns="http://www.w3.org/2000/svg">
<path d="M33.5 24.7781C28.6975 24.7781 24.7782 28.6974 24.7782 33.4999C24.7782 38.3024 28.6975 42.2217 33.5 42.2217C38.3025 42.2217 42.2218 38.3024 42.2218 33.4999C42.2218 28.6974 38.3025 24.7781 33.5 24.7781ZM59.6588 33.4999C59.6588 29.8882 59.6915 26.3092 59.4887 22.704C59.2859 18.5165 58.3306 14.8001 55.2685 11.738C52.1998 8.66933 48.49 7.7206 44.3025 7.51777C40.6907 7.31493 37.1117 7.34765 33.5065 7.34765C29.8948 7.34765 26.3158 7.31493 22.7107 7.51777C18.5232 7.7206 14.8067 8.67587 11.7446 11.738C8.67598 14.8066 7.72725 18.5165 7.52442 22.704C7.32159 26.3157 7.3543 29.8947 7.3543 33.4999C7.3543 37.1051 7.32159 40.6906 7.52442 44.2958C7.72725 48.4833 8.68253 52.1997 11.7446 55.2618C14.8133 58.3305 18.5232 59.2792 22.7107 59.482C26.3224 59.6849 29.9014 59.6521 33.5065 59.6521C37.1183 59.6521 40.6973 59.6849 44.3025 59.482C48.49 59.2792 52.2064 58.3239 55.2685 55.2618C58.3371 52.1932 59.2859 48.4833 59.4887 44.2958C59.6981 40.6906 59.6588 37.1116 59.6588 33.4999V33.4999ZM33.5 46.9195C26.0737 46.9195 20.0804 40.9262 20.0804 33.4999C20.0804 26.0736 26.0737 20.0803 33.5 20.0803C40.9263 20.0803 46.9196 26.0736 46.9196 33.4999C46.9196 40.9262 40.9263 46.9195 33.5 46.9195ZM47.4692 22.6647C45.7354 22.6647 44.3352 21.2645 44.3352 19.5307C44.3352 17.7968 45.7354 16.3966 47.4692 16.3966C49.2031 16.3966 50.6033 17.7968 50.6033 19.5307C50.6038 19.9424 50.5231 20.3502 50.3658 20.7306C50.2085 21.1111 49.9777 21.4568 49.6865 21.7479C49.3954 22.0391 49.0497 22.2699 48.6692 22.4272C48.2887 22.5845 47.881 22.6653 47.4692 22.6647V22.6647Z" fill="white"/>
</svg>
